<?xml version="1.0" standalone="no"?><!DOCTYPE svg PUBLIC "-//W3C//DTD SVG 1.1//EN" "http://www.w3.org/Graphics/SVG/1.1/DTD/svg11.dtd"><svg t="1540214630012" class="icon" style="" viewBox="0 0 1024 1024" version="1.1" xmlns="http://www.w3.org/2000/svg" p-id="1565" xmlns:xlink="http://www.w3.org/1999/xlink" width="300" height="300"><defs><style type="text/css"></style></defs><path d="M843.738 870.774H360.964l-206.105-0.409a17.7 17.7 0 0 1-1.784-0.09 99.363 99.363 0 0 1-63.666-32.078 99.362 99.362 0 0 1-25.932-67.03v-518.34c0-54.919 44.682-99.601 99.601-99.601h680.657c54.919 0 99.601 44.681 99.601 99.601v221.93c0 0.269-0.005 0.543-0.019 0.812-0.019 0.489-1.938 50.903 15.236 84.106 4.533 8.959 0.998 19.897-7.92 24.51-8.918 4.613-19.888 1.178-24.581-7.699-20.962-40.52-19.527-96.093-19.307-102.088V252.827c0-34.744-28.27-63.014-63.013-63.014H163.083c-34.744 0-63.014 28.27-63.014 63.014v518.341c-0.12 32.064 23.949 59.063 55.816 62.61l205.118 0.404h482.734c34.743 0 63.014-28.27 63.014-63.014l-0.38-92.19c-0.105-1.724-1.56-19.238-19.238-41.825l-0.145-0.19-21.366-28.035-115.365-152.652c-0.408-0.544-38.377-50.045-84.903-44.811-37.725 4.245-74.746 44.448-107.062 116.253-17.335 38.522-34.101 67.185-51.256 87.63-17.33 20.653-35.113 32.984-54.377 37.709-42.733 10.472-79.764-18.695-118.964-49.572l-4.979-3.917c-45.814-35.996-67.658-27.776-155.816 58.657-7.263 6.761-18.592 6.503-25.538-0.583-6.948-7.084-6.983-18.415-0.08-25.544 45.919-45.021 76.311-71.57 105.383-82.944 32.829-12.84 63.252-6.166 98.649 21.646l5.014 3.942c33.383 26.295 62.215 49.002 87.614 42.778 25.21-6.181 52.453-41.448 80.971-104.815 38.517-85.596 84.474-131.898 136.593-137.629 67.365-7.397 115.953 56.494 117.988 59.215l115.261 152.517 21.256 27.89c25.857 33.1 26.899 60.661 26.934 63.696v0.124l0.378 92.564c0.016 55.009-44.666 99.692-99.585 99.692zM311.497 432.272c-41.651 0-75.538-33.886-75.538-75.538 0-41.651 33.887-75.538 75.538-75.538 41.652 0 75.538 33.887 75.538 75.538 0 41.652-33.886 75.538-75.538 75.538z m0-114.493c-21.475 0-38.95 17.475-38.95 38.95 0 21.477 17.475 38.951 38.95 38.951 21.477 0 38.95-17.475 38.95-38.951s-17.474-38.95-38.95-38.95z" fill="" p-id="1566"></path></svg>